<mxfile host="app.diagrams.net" modified="2021-09-16T10:07:42.308Z" agent="5.0 (Macintosh; Intel Mac OS X 10_14_6) AppleWebKit/537.36 (KHTML, like Gecko) Chrome/91.0.4472.114 Safari/537.36" etag="eyO4eLLHiBq60L9_hh6n" version="15.2.4" type="github">
  <diagram id="yPxyJZ8AM_hMuL3Unpa9" name="complex gitflow">
    <mxGraphModel dx="1377" dy="1564" grid="1" gridSize="10" guides="1" tooltips="1" connect="1" arrows="1" fold="1" page="1" pageScale="1" pageWidth="1100" pageHeight="850" math="0" shadow="0">
      <root>
        <mxCell id="0" />
        <mxCell id="1" parent="0" />
        <mxCell id="uWUnNED6HEl2aK5fdaIb-8" value="" style="edgeStyle=orthogonalEdgeStyle;rounded=0;html=1;jettySize=auto;orthogonalLoop=1;plain-blue;endArrow=none;endFill=0;strokeWidth=4;strokeColor=#000000;entryX=0;entryY=0.5;entryDx=0;entryDy=0;entryPerimeter=0;" parent="1" edge="1">
          <mxGeometry x="292.25" y="211" as="geometry">
            <mxPoint x="452.25" y="211" as="targetPoint" />
            <mxPoint x="150" y="211" as="sourcePoint" />
          </mxGeometry>
        </mxCell>
        <mxCell id="uWUnNED6HEl2aK5fdaIb-80" value="" style="edgeStyle=orthogonalEdgeStyle;curved=1;rounded=0;orthogonalLoop=1;jettySize=auto;html=1;endArrow=none;endFill=0;strokeWidth=4;startArrow=none;" parent="1" source="-v2cMw3LyEbhCpz4ICH8-104" edge="1">
          <mxGeometry relative="1" as="geometry">
            <mxPoint x="1040" y="211" as="targetPoint" />
          </mxGeometry>
        </mxCell>
        <mxCell id="uWUnNED6HEl2aK5fdaIb-11" value="" style="verticalLabelPosition=bottom;verticalAlign=top;html=1;strokeWidth=4;shape=mxgraph.flowchart.on-page_reference;plain-blue;gradientColor=none;strokeColor=#000000;fillColor=#B5E3FE;" parent="1" vertex="1">
          <mxGeometry x="740" y="196" width="30" height="30" as="geometry" />
        </mxCell>
        <mxCell id="uWUnNED6HEl2aK5fdaIb-12" value="" style="edgeStyle=orthogonalEdgeStyle;rounded=0;html=1;jettySize=auto;orthogonalLoop=1;strokeWidth=4;endArrow=none;endFill=0;startArrow=none;" parent="1" edge="1">
          <mxGeometry x="192.25" y="211" as="geometry">
            <mxPoint x="150" y="211" as="sourcePoint" />
            <mxPoint x="262.25" y="211" as="targetPoint" />
          </mxGeometry>
        </mxCell>
        <mxCell id="uWUnNED6HEl2aK5fdaIb-13" value="master" style="text;html=1;strokeColor=none;fillColor=none;align=center;verticalAlign=middle;whiteSpace=wrap;overflow=hidden;fontSize=14;fontStyle=1;fontFamily=Courier New;" parent="1" vertex="1">
          <mxGeometry x="73.63" y="188" width="50" height="42" as="geometry" />
        </mxCell>
        <mxCell id="uWUnNED6HEl2aK5fdaIb-14" style="edgeStyle=orthogonalEdgeStyle;curved=1;rounded=0;html=1;exitX=1;exitY=0.5;exitPerimeter=0;endArrow=none;endFill=0;jettySize=auto;orthogonalLoop=1;strokeWidth=4;fontSize=15;exitDx=0;exitDy=0;entryX=0;entryY=0.5;entryDx=0;entryDy=0;entryPerimeter=0;" parent="1" source="-v2cMw3LyEbhCpz4ICH8-7" edge="1">
          <mxGeometry relative="1" as="geometry">
            <mxPoint x="292.25" y="296" as="sourcePoint" />
            <mxPoint x="549.75" y="296" as="targetPoint" />
          </mxGeometry>
        </mxCell>
        <mxCell id="uWUnNED6HEl2aK5fdaIb-16" style="edgeStyle=orthogonalEdgeStyle;curved=1;rounded=0;html=1;exitX=1;exitY=0.5;exitPerimeter=0;entryX=0;entryY=0.5;entryPerimeter=0;endArrow=none;endFill=0;jettySize=auto;orthogonalLoop=1;strokeWidth=4;fontSize=15;entryDx=0;entryDy=0;" parent="1" target="uWUnNED6HEl2aK5fdaIb-104" edge="1">
          <mxGeometry relative="1" as="geometry">
            <mxPoint x="476.75" y="296" as="sourcePoint" />
            <mxPoint x="549.75" y="296" as="targetPoint" />
          </mxGeometry>
        </mxCell>
        <mxCell id="uWUnNED6HEl2aK5fdaIb-20" value="develop" style="text;html=1;strokeColor=none;fillColor=none;align=left;verticalAlign=middle;whiteSpace=wrap;overflow=hidden;fontSize=14;fontStyle=1;fontFamily=Courier New;" parent="1" vertex="1">
          <mxGeometry x="70" y="281" width="70" height="20" as="geometry" />
        </mxCell>
        <mxCell id="uWUnNED6HEl2aK5fdaIb-81" value="" style="edgeStyle=orthogonalEdgeStyle;rounded=0;orthogonalLoop=1;jettySize=auto;html=1;endArrow=none;endFill=0;strokeWidth=4;startArrow=none;" parent="1" source="-v2cMw3LyEbhCpz4ICH8-56" edge="1">
          <mxGeometry relative="1" as="geometry">
            <mxPoint x="1040" y="401" as="targetPoint" />
          </mxGeometry>
        </mxCell>
        <mxCell id="uWUnNED6HEl2aK5fdaIb-82" value="" style="verticalLabelPosition=bottom;verticalAlign=top;html=1;strokeWidth=4;shape=mxgraph.flowchart.on-page_reference;plain-purple;gradientColor=none;strokeColor=#000000;fillColor=#D5E8D4;" parent="1" vertex="1">
          <mxGeometry x="220" y="386" width="30" height="30" as="geometry" />
        </mxCell>
        <mxCell id="uWUnNED6HEl2aK5fdaIb-86" value="feature-A" style="text;html=1;strokeColor=none;fillColor=none;align=left;verticalAlign=middle;whiteSpace=wrap;overflow=hidden;fontSize=14;fontStyle=1;fontFamily=Courier New;" parent="1" vertex="1">
          <mxGeometry x="50" y="391" width="102.5" height="20" as="geometry" />
        </mxCell>
        <mxCell id="uWUnNED6HEl2aK5fdaIb-87" value="The development or sprint branch" style="text;html=1;strokeColor=none;fillColor=none;align=left;verticalAlign=middle;whiteSpace=wrap;overflow=hidden;fontSize=14;fontStyle=0;fontColor=#009900;" parent="1" vertex="1">
          <mxGeometry x="267.25" y="630" width="240" height="20" as="geometry" />
        </mxCell>
        <mxCell id="uWUnNED6HEl2aK5fdaIb-88" value="Your feature branch" style="text;html=1;strokeColor=none;fillColor=none;align=left;verticalAlign=middle;whiteSpace=wrap;overflow=hidden;fontSize=14;fontStyle=0;fontColor=#009900;" parent="1" vertex="1">
          <mxGeometry x="20" y="420" width="140" height="20" as="geometry" />
        </mxCell>
        <mxCell id="uWUnNED6HEl2aK5fdaIb-91" value="" style="endArrow=classic;html=1;strokeWidth=1;fontFamily=Courier New;fontColor=#009900;" parent="1" edge="1" source="uWUnNED6HEl2aK5fdaIb-86">
          <mxGeometry width="50" height="50" relative="1" as="geometry">
            <mxPoint x="306.75" y="454.5" as="sourcePoint" />
            <mxPoint x="220" y="401" as="targetPoint" />
          </mxGeometry>
        </mxCell>
        <mxCell id="uWUnNED6HEl2aK5fdaIb-107" value="" style="edgeStyle=orthogonalEdgeStyle;curved=1;rounded=0;orthogonalLoop=1;jettySize=auto;html=1;endArrow=none;endFill=0;strokeWidth=4;fontFamily=Courier New;fontColor=#009900;" parent="1" source="uWUnNED6HEl2aK5fdaIb-104" edge="1">
          <mxGeometry relative="1" as="geometry">
            <mxPoint x="786.75" y="296" as="targetPoint" />
          </mxGeometry>
        </mxCell>
        <mxCell id="fSnZ5vnYTslC5NarKmr_-9" value="" style="edgeStyle=orthogonalEdgeStyle;rounded=0;orthogonalLoop=1;jettySize=auto;html=1;fontSize=12;fontColor=#000000;entryX=0;entryY=0.5;entryDx=0;entryDy=0;" parent="1" source="fSnZ5vnYTslC5NarKmr_-8" edge="1">
          <mxGeometry relative="1" as="geometry">
            <mxPoint x="670.63" y="192" as="targetPoint" />
            <Array as="points">
              <mxPoint x="650.63" y="192" />
              <mxPoint x="650.63" y="192" />
            </Array>
          </mxGeometry>
        </mxCell>
        <mxCell id="fSnZ5vnYTslC5NarKmr_-8" value="&lt;span style=&quot;text-align: center; font-size: 11px;&quot;&gt;Each tag represents a production release.&lt;/span&gt;" style="text;html=1;strokeColor=none;fillColor=none;align=left;verticalAlign=middle;whiteSpace=wrap;overflow=hidden;fontSize=11;fontStyle=0;fontColor=#000000;" parent="1" vertex="1">
          <mxGeometry x="522.88" y="170" width="120" height="38" as="geometry" />
        </mxCell>
        <UserObject label="Example diagram for a workflow similar to &quot;Git-flow&quot; :" link="https://nvie.com/posts/a-successful-git-branching-model/" id="9hBKPDzoitwpIBdzFDQ7-2">
          <mxCell style="text;whiteSpace=wrap;html=1;fontStyle=1;fontSize=16;" parent="1" vertex="1">
            <mxGeometry x="32.25" y="-100" width="427.75" height="20" as="geometry" />
          </mxCell>
        </UserObject>
        <UserObject label="&lt;a href=&quot;https://nvie.com/posts/a-successful-git-branching-model/&quot;&gt;https://nvie.com/posts/a-successful-git-branching-model/&lt;/a&gt;" link="https://nvie.com/posts/a-successful-git-branching-model/" id="9hBKPDzoitwpIBdzFDQ7-3">
          <mxCell style="text;whiteSpace=wrap;html=1;" parent="1" vertex="1">
            <mxGeometry x="65" y="-75" width="355" height="20" as="geometry" />
          </mxCell>
        </UserObject>
        <UserObject label="See:" link="https://nvie.com/posts/a-successful-git-branching-model/" id="9hBKPDzoitwpIBdzFDQ7-7">
          <mxCell style="text;whiteSpace=wrap;html=1;" parent="1" vertex="1">
            <mxGeometry x="32.25" y="-75" width="32.75" height="20" as="geometry" />
          </mxCell>
        </UserObject>
        <mxCell id="9hBKPDzoitwpIBdzFDQ7-15" value="&lt;span style=&quot;text-align: center&quot;&gt;Notice:Every merge request should trigger a code review.&lt;br&gt;&lt;/span&gt;" style="text;html=1;strokeColor=none;fillColor=none;align=left;verticalAlign=middle;whiteSpace=wrap;overflow=hidden;fontSize=12;fontStyle=0;fontColor=#000000;" parent="1" vertex="1">
          <mxGeometry x="26.129999999999995" y="-44" width="167.75" height="81" as="geometry" />
        </mxCell>
        <mxCell id="9hBKPDzoitwpIBdzFDQ7-21" value="" style="edgeStyle=orthogonalEdgeStyle;rounded=0;orthogonalLoop=1;jettySize=auto;html=1;fontSize=15;endArrow=none;endFill=0;strokeWidth=4;entryX=0;entryY=0.5;entryDx=0;entryDy=0;entryPerimeter=0;" parent="1" target="uWUnNED6HEl2aK5fdaIb-11" edge="1">
          <mxGeometry relative="1" as="geometry">
            <mxPoint x="560.25" y="211" as="targetPoint" />
            <mxPoint x="150" y="211" as="sourcePoint" />
          </mxGeometry>
        </mxCell>
        <mxCell id="-v2cMw3LyEbhCpz4ICH8-1" value="must protected branch" style="text;html=1;strokeColor=none;fillColor=none;align=left;verticalAlign=middle;whiteSpace=wrap;overflow=hidden;fontSize=14;fontStyle=0;fontColor=#009900;" vertex="1" parent="1">
          <mxGeometry x="20" y="226" width="150" height="20" as="geometry" />
        </mxCell>
        <mxCell id="-v2cMw3LyEbhCpz4ICH8-3" value="must protected &amp;amp; default branch" style="text;html=1;strokeColor=none;fillColor=none;align=left;verticalAlign=middle;whiteSpace=wrap;overflow=hidden;fontSize=14;fontStyle=0;fontColor=#009900;" vertex="1" parent="1">
          <mxGeometry x="20" y="302" width="120" height="39" as="geometry" />
        </mxCell>
        <mxCell id="-v2cMw3LyEbhCpz4ICH8-7" value="" style="verticalLabelPosition=bottom;verticalAlign=top;html=1;strokeWidth=4;shape=mxgraph.flowchart.on-page_reference;plain-purple;gradientColor=none;strokeColor=#000000;fillColor=#D5E8D4;" vertex="1" parent="1">
          <mxGeometry x="190" y="281" width="30" height="30" as="geometry" />
        </mxCell>
        <mxCell id="-v2cMw3LyEbhCpz4ICH8-8" value="" style="edgeStyle=orthogonalEdgeStyle;rounded=0;html=1;jettySize=auto;orthogonalLoop=1;strokeWidth=4;endArrow=none;endFill=0;" edge="1" parent="1" target="-v2cMw3LyEbhCpz4ICH8-7">
          <mxGeometry x="192.25" y="295.5" as="geometry">
            <mxPoint x="150" y="295.5" as="sourcePoint" />
            <mxPoint x="262.25" y="295.5" as="targetPoint" />
          </mxGeometry>
        </mxCell>
        <mxCell id="-v2cMw3LyEbhCpz4ICH8-13" style="edgeStyle=orthogonalEdgeStyle;curved=1;rounded=0;html=1;exitX=1;exitY=0.5;exitPerimeter=0;endArrow=none;endFill=0;jettySize=auto;orthogonalLoop=1;strokeWidth=4;fontSize=15;exitDx=0;exitDy=0;entryX=0;entryY=0.5;entryDx=0;entryDy=0;entryPerimeter=0;" edge="1" parent="1" source="-v2cMw3LyEbhCpz4ICH8-23" target="-v2cMw3LyEbhCpz4ICH8-17">
          <mxGeometry relative="1" as="geometry">
            <mxPoint x="292.25" y="505" as="sourcePoint" />
            <mxPoint x="446.75" y="505" as="targetPoint" />
          </mxGeometry>
        </mxCell>
        <mxCell id="-v2cMw3LyEbhCpz4ICH8-15" style="edgeStyle=orthogonalEdgeStyle;curved=1;rounded=0;html=1;exitX=1;exitY=0.5;exitPerimeter=0;entryX=0;entryY=0.5;entryPerimeter=0;endArrow=none;endFill=0;jettySize=auto;orthogonalLoop=1;strokeWidth=4;fontSize=15;" edge="1" parent="1" target="-v2cMw3LyEbhCpz4ICH8-17">
          <mxGeometry relative="1" as="geometry">
            <mxPoint x="476.75" y="505" as="sourcePoint" />
          </mxGeometry>
        </mxCell>
        <mxCell id="-v2cMw3LyEbhCpz4ICH8-17" value="" style="verticalLabelPosition=bottom;verticalAlign=top;html=1;strokeWidth=4;shape=mxgraph.flowchart.on-page_reference;strokeColor=#330000;fillColor=#f8cecc;" vertex="1" parent="1">
          <mxGeometry x="500" y="490" width="30" height="30" as="geometry" />
        </mxCell>
        <mxCell id="-v2cMw3LyEbhCpz4ICH8-18" value="test" style="text;html=1;strokeColor=none;fillColor=none;align=left;verticalAlign=middle;whiteSpace=wrap;overflow=hidden;fontSize=14;fontStyle=1;fontFamily=Courier New;" vertex="1" parent="1">
          <mxGeometry x="75" y="490" width="70" height="20" as="geometry" />
        </mxCell>
        <mxCell id="-v2cMw3LyEbhCpz4ICH8-23" value="" style="verticalLabelPosition=bottom;verticalAlign=top;html=1;strokeWidth=4;shape=mxgraph.flowchart.on-page_reference;plain-purple;gradientColor=none;strokeColor=#000000;fillColor=#D5E8D4;" vertex="1" parent="1">
          <mxGeometry x="190" y="490" width="30" height="30" as="geometry" />
        </mxCell>
        <mxCell id="-v2cMw3LyEbhCpz4ICH8-24" value="" style="edgeStyle=orthogonalEdgeStyle;rounded=0;html=1;jettySize=auto;orthogonalLoop=1;strokeWidth=4;endArrow=none;endFill=0;" edge="1" parent="1" target="-v2cMw3LyEbhCpz4ICH8-23">
          <mxGeometry x="192.25" y="504.5" as="geometry">
            <mxPoint x="150" y="504.5" as="sourcePoint" />
            <mxPoint x="262.25" y="504.5" as="targetPoint" />
          </mxGeometry>
        </mxCell>
        <mxCell id="-v2cMw3LyEbhCpz4ICH8-25" style="edgeStyle=orthogonalEdgeStyle;curved=1;rounded=0;html=1;exitX=1;exitY=0.5;exitPerimeter=0;endArrow=none;endFill=0;jettySize=auto;orthogonalLoop=1;strokeWidth=4;fontSize=15;exitDx=0;exitDy=0;" edge="1" parent="1" source="-v2cMw3LyEbhCpz4ICH8-35" target="-v2cMw3LyEbhCpz4ICH8-29">
          <mxGeometry relative="1" as="geometry">
            <mxPoint x="292.25" y="595" as="sourcePoint" />
            <mxPoint x="446.75" y="595" as="targetPoint" />
          </mxGeometry>
        </mxCell>
        <mxCell id="-v2cMw3LyEbhCpz4ICH8-30" value="staging" style="text;html=1;strokeColor=none;fillColor=none;align=left;verticalAlign=middle;whiteSpace=wrap;overflow=hidden;fontSize=14;fontStyle=1;fontFamily=Courier New;" vertex="1" parent="1">
          <mxGeometry x="70" y="580" width="70" height="20" as="geometry" />
        </mxCell>
        <mxCell id="-v2cMw3LyEbhCpz4ICH8-35" value="" style="verticalLabelPosition=bottom;verticalAlign=top;html=1;strokeWidth=4;shape=mxgraph.flowchart.on-page_reference;plain-purple;gradientColor=none;strokeColor=#000000;fillColor=#D5E8D4;" vertex="1" parent="1">
          <mxGeometry x="190" y="580" width="30" height="30" as="geometry" />
        </mxCell>
        <mxCell id="-v2cMw3LyEbhCpz4ICH8-36" value="" style="edgeStyle=orthogonalEdgeStyle;rounded=0;html=1;jettySize=auto;orthogonalLoop=1;strokeWidth=4;endArrow=none;endFill=0;" edge="1" parent="1" target="-v2cMw3LyEbhCpz4ICH8-35">
          <mxGeometry x="192.25" y="594.5" as="geometry">
            <mxPoint x="150" y="594.5" as="sourcePoint" />
            <mxPoint x="262.25" y="594.5" as="targetPoint" />
          </mxGeometry>
        </mxCell>
        <mxCell id="-v2cMw3LyEbhCpz4ICH8-37" value="" style="verticalLabelPosition=bottom;verticalAlign=top;html=1;strokeWidth=4;shape=mxgraph.flowchart.on-page_reference;plain-purple;gradientColor=none;strokeColor=#000000;fillColor=#D5E8D4;" vertex="1" parent="1">
          <mxGeometry x="281.13" y="386" width="30" height="30" as="geometry" />
        </mxCell>
        <mxCell id="-v2cMw3LyEbhCpz4ICH8-38" value="" style="edgeStyle=orthogonalEdgeStyle;rounded=0;orthogonalLoop=1;jettySize=auto;html=1;endArrow=none;endFill=0;strokeWidth=4;" edge="1" parent="1" source="uWUnNED6HEl2aK5fdaIb-82" target="-v2cMw3LyEbhCpz4ICH8-37">
          <mxGeometry relative="1" as="geometry">
            <mxPoint x="250" y="401" as="sourcePoint" />
            <mxPoint x="626.8" y="440" as="targetPoint" />
          </mxGeometry>
        </mxCell>
        <mxCell id="uWUnNED6HEl2aK5fdaIb-69" value="" style="verticalLabelPosition=bottom;verticalAlign=top;html=1;strokeWidth=4;shape=mxgraph.flowchart.on-page_reference;plain-purple;gradientColor=none;strokeColor=#000000;fillColor=#D5E8D4;" parent="1" vertex="1">
          <mxGeometry x="340" y="386" width="30" height="30" as="geometry" />
        </mxCell>
        <mxCell id="-v2cMw3LyEbhCpz4ICH8-39" value="" style="edgeStyle=orthogonalEdgeStyle;rounded=0;orthogonalLoop=1;jettySize=auto;html=1;endArrow=none;endFill=0;strokeWidth=4;startArrow=none;" edge="1" parent="1" source="-v2cMw3LyEbhCpz4ICH8-37" target="uWUnNED6HEl2aK5fdaIb-69">
          <mxGeometry relative="1" as="geometry">
            <mxPoint x="311.1300000000001" y="401" as="sourcePoint" />
            <mxPoint x="626.8" y="440" as="targetPoint" />
          </mxGeometry>
        </mxCell>
        <mxCell id="uWUnNED6HEl2aK5fdaIb-70" value="" style="verticalLabelPosition=bottom;verticalAlign=top;html=1;strokeWidth=4;shape=mxgraph.flowchart.on-page_reference;plain-purple;gradientColor=none;strokeColor=#000000;fillColor=#D5E8D4;" parent="1" vertex="1">
          <mxGeometry x="397.25" y="386" width="30" height="30" as="geometry" />
        </mxCell>
        <mxCell id="-v2cMw3LyEbhCpz4ICH8-40" value="" style="edgeStyle=orthogonalEdgeStyle;rounded=0;orthogonalLoop=1;jettySize=auto;html=1;endArrow=none;endFill=0;strokeWidth=4;startArrow=none;" edge="1" parent="1" source="uWUnNED6HEl2aK5fdaIb-69" target="uWUnNED6HEl2aK5fdaIb-70">
          <mxGeometry relative="1" as="geometry">
            <mxPoint x="370" y="401" as="sourcePoint" />
            <mxPoint x="626.8" y="440" as="targetPoint" />
          </mxGeometry>
        </mxCell>
        <mxCell id="-v2cMw3LyEbhCpz4ICH8-41" value="" style="verticalLabelPosition=bottom;verticalAlign=top;html=1;strokeWidth=4;shape=mxgraph.flowchart.on-page_reference;plain-purple;gradientColor=none;strokeColor=#000000;fillColor=#D5E8D4;" vertex="1" parent="1">
          <mxGeometry x="460" y="386" width="30" height="30" as="geometry" />
        </mxCell>
        <mxCell id="-v2cMw3LyEbhCpz4ICH8-42" value="" style="edgeStyle=orthogonalEdgeStyle;rounded=0;orthogonalLoop=1;jettySize=auto;html=1;endArrow=none;endFill=0;strokeWidth=4;startArrow=none;" edge="1" parent="1" source="uWUnNED6HEl2aK5fdaIb-70" target="-v2cMw3LyEbhCpz4ICH8-41">
          <mxGeometry relative="1" as="geometry">
            <mxPoint x="427.25" y="401" as="sourcePoint" />
            <mxPoint x="626.8" y="440" as="targetPoint" />
          </mxGeometry>
        </mxCell>
        <mxCell id="-v2cMw3LyEbhCpz4ICH8-43" value="Only for QA test in &lt;br&gt;test env&amp;nbsp;" style="text;html=1;strokeColor=none;fillColor=none;align=left;verticalAlign=middle;whiteSpace=wrap;overflow=hidden;fontSize=14;fontStyle=0;fontColor=#009900;" vertex="1" parent="1">
          <mxGeometry x="20" y="520" width="120" height="40" as="geometry" />
        </mxCell>
        <mxCell id="-v2cMw3LyEbhCpz4ICH8-44" value="Only for QA test in &lt;br&gt;staging env&amp;nbsp;" style="text;html=1;strokeColor=none;fillColor=none;align=left;verticalAlign=middle;whiteSpace=wrap;overflow=hidden;fontSize=14;fontStyle=0;fontColor=#009900;" vertex="1" parent="1">
          <mxGeometry x="25" y="610" width="120" height="40" as="geometry" />
        </mxCell>
        <mxCell id="-v2cMw3LyEbhCpz4ICH8-46" value="&lt;span style=&quot;text-align: center&quot;&gt;Merge and then submit to QA for test&lt;br&gt;&lt;/span&gt;" style="text;html=1;strokeColor=none;fillColor=none;align=left;verticalAlign=middle;whiteSpace=wrap;overflow=hidden;fontSize=12;fontStyle=0;fontColor=#000000;" vertex="1" parent="1">
          <mxGeometry x="400" y="436" width="82.25" height="44" as="geometry" />
        </mxCell>
        <mxCell id="-v2cMw3LyEbhCpz4ICH8-49" value="" style="curved=1;endArrow=none;html=1;strokeWidth=4;exitX=0.5;exitY=1;exitDx=0;exitDy=0;exitPerimeter=0;entryX=0.145;entryY=0.145;entryDx=0;entryDy=0;entryPerimeter=0;endFill=0;" edge="1" parent="1" source="-v2cMw3LyEbhCpz4ICH8-7" target="-v2cMw3LyEbhCpz4ICH8-35">
          <mxGeometry width="50" height="50" relative="1" as="geometry">
            <mxPoint x="520" y="430" as="sourcePoint" />
            <mxPoint x="570" y="380" as="targetPoint" />
            <Array as="points">
              <mxPoint x="194" y="350" />
              <mxPoint x="150" y="410" />
              <mxPoint x="170" y="500" />
            </Array>
          </mxGeometry>
        </mxCell>
        <mxCell id="-v2cMw3LyEbhCpz4ICH8-50" value="" style="curved=1;endArrow=none;html=1;strokeWidth=4;exitX=0.145;exitY=0.855;exitDx=0;exitDy=0;exitPerimeter=0;entryX=0.145;entryY=0.145;entryDx=0;entryDy=0;entryPerimeter=0;endFill=0;" edge="1" parent="1" source="-v2cMw3LyEbhCpz4ICH8-7" target="-v2cMw3LyEbhCpz4ICH8-23">
          <mxGeometry width="50" height="50" relative="1" as="geometry">
            <mxPoint x="207.5" y="216.65" as="sourcePoint" />
            <mxPoint x="196.8499999999999" y="489.9999999999999" as="targetPoint" />
            <Array as="points">
              <mxPoint x="160" y="360" />
              <mxPoint x="170" y="420" />
              <mxPoint x="190" y="460" />
            </Array>
          </mxGeometry>
        </mxCell>
        <mxCell id="-v2cMw3LyEbhCpz4ICH8-51" value="" style="curved=1;endArrow=none;html=1;strokeWidth=4;exitX=1;exitY=0.5;exitDx=0;exitDy=0;exitPerimeter=0;entryX=0.145;entryY=0.145;entryDx=0;entryDy=0;entryPerimeter=0;endFill=0;" edge="1" parent="1" source="-v2cMw3LyEbhCpz4ICH8-7" target="uWUnNED6HEl2aK5fdaIb-82">
          <mxGeometry width="50" height="50" relative="1" as="geometry">
            <mxPoint x="204.3499999999999" y="316.6500000000001" as="sourcePoint" />
            <mxPoint x="204.3499999999999" y="504.3499999999999" as="targetPoint" />
            <Array as="points">
              <mxPoint x="235" y="330" />
              <mxPoint x="224" y="340" />
              <mxPoint x="210" y="350" />
            </Array>
          </mxGeometry>
        </mxCell>
        <mxCell id="-v2cMw3LyEbhCpz4ICH8-52" value="&lt;span style=&quot;text-align: center&quot;&gt;New feature&lt;br&gt;&lt;/span&gt;" style="text;html=1;strokeColor=none;fillColor=none;align=left;verticalAlign=middle;whiteSpace=wrap;overflow=hidden;fontSize=12;fontStyle=0;fontColor=#000000;" vertex="1" parent="1">
          <mxGeometry x="236.13" y="318" width="82.25" height="44" as="geometry" />
        </mxCell>
        <mxCell id="-v2cMw3LyEbhCpz4ICH8-53" value="" style="verticalLabelPosition=bottom;verticalAlign=top;html=1;strokeWidth=4;shape=mxgraph.flowchart.on-page_reference;plain-purple;gradientColor=none;strokeColor=#000000;fillColor=#D5E8D4;" vertex="1" parent="1">
          <mxGeometry x="520" y="386" width="30" height="30" as="geometry" />
        </mxCell>
        <mxCell id="-v2cMw3LyEbhCpz4ICH8-54" value="" style="edgeStyle=orthogonalEdgeStyle;rounded=0;orthogonalLoop=1;jettySize=auto;html=1;endArrow=none;endFill=0;strokeWidth=4;startArrow=none;" edge="1" parent="1" source="-v2cMw3LyEbhCpz4ICH8-41" target="-v2cMw3LyEbhCpz4ICH8-53">
          <mxGeometry relative="1" as="geometry">
            <mxPoint x="490" y="401" as="sourcePoint" />
            <mxPoint x="626.8" y="440" as="targetPoint" />
          </mxGeometry>
        </mxCell>
        <mxCell id="-v2cMw3LyEbhCpz4ICH8-56" value="" style="verticalLabelPosition=bottom;verticalAlign=top;html=1;strokeWidth=4;shape=mxgraph.flowchart.on-page_reference;plain-purple;gradientColor=none;strokeColor=#000000;fillColor=#D5E8D4;" vertex="1" parent="1">
          <mxGeometry x="579.75" y="386" width="30" height="30" as="geometry" />
        </mxCell>
        <mxCell id="-v2cMw3LyEbhCpz4ICH8-57" value="" style="edgeStyle=orthogonalEdgeStyle;rounded=0;orthogonalLoop=1;jettySize=auto;html=1;endArrow=none;endFill=0;strokeWidth=4;startArrow=none;" edge="1" parent="1" source="-v2cMw3LyEbhCpz4ICH8-53" target="-v2cMw3LyEbhCpz4ICH8-56">
          <mxGeometry relative="1" as="geometry">
            <mxPoint x="550" y="401" as="sourcePoint" />
            <mxPoint x="827.3000000000002" y="470" as="targetPoint" />
          </mxGeometry>
        </mxCell>
        <mxCell id="-v2cMw3LyEbhCpz4ICH8-60" style="edgeStyle=orthogonalEdgeStyle;curved=1;rounded=0;html=1;exitX=1;exitY=0.5;exitPerimeter=0;endArrow=none;endFill=0;jettySize=auto;orthogonalLoop=1;strokeWidth=4;fontSize=15;exitDx=0;exitDy=0;startArrow=none;" edge="1" parent="1" source="-v2cMw3LyEbhCpz4ICH8-61">
          <mxGeometry relative="1" as="geometry">
            <mxPoint x="531.5" y="504.5" as="sourcePoint" />
            <mxPoint x="1040" y="504" as="targetPoint" />
          </mxGeometry>
        </mxCell>
        <mxCell id="-v2cMw3LyEbhCpz4ICH8-61" value="" style="verticalLabelPosition=bottom;verticalAlign=top;html=1;strokeWidth=4;shape=mxgraph.flowchart.on-page_reference;strokeColor=#330000;fillColor=#f8cecc;" vertex="1" parent="1">
          <mxGeometry x="609.75" y="490" width="30" height="30" as="geometry" />
        </mxCell>
        <mxCell id="-v2cMw3LyEbhCpz4ICH8-62" value="" style="edgeStyle=orthogonalEdgeStyle;curved=1;rounded=0;html=1;exitX=1;exitY=0.5;exitPerimeter=0;endArrow=none;endFill=0;jettySize=auto;orthogonalLoop=1;strokeWidth=4;fontSize=15;exitDx=0;exitDy=0;entryX=0;entryY=0.5;entryDx=0;entryDy=0;entryPerimeter=0;" edge="1" parent="1" target="-v2cMw3LyEbhCpz4ICH8-61">
          <mxGeometry relative="1" as="geometry">
            <mxPoint x="531.5" y="504.5" as="sourcePoint" />
            <mxPoint x="861.25" y="504.5" as="targetPoint" />
          </mxGeometry>
        </mxCell>
        <mxCell id="-v2cMw3LyEbhCpz4ICH8-64" value="" style="curved=1;endArrow=none;html=1;strokeWidth=4;exitX=0.5;exitY=1;exitDx=0;exitDy=0;exitPerimeter=0;entryX=0.5;entryY=0;entryDx=0;entryDy=0;entryPerimeter=0;endFill=0;" edge="1" parent="1" source="-v2cMw3LyEbhCpz4ICH8-41" target="-v2cMw3LyEbhCpz4ICH8-17">
          <mxGeometry width="50" height="50" relative="1" as="geometry">
            <mxPoint x="230" y="306" as="sourcePoint" />
            <mxPoint x="520" y="500" as="targetPoint" />
            <Array as="points">
              <mxPoint x="475" y="450" />
              <mxPoint x="500" y="450" />
            </Array>
          </mxGeometry>
        </mxCell>
        <mxCell id="-v2cMw3LyEbhCpz4ICH8-66" value="" style="curved=1;endArrow=none;html=1;strokeWidth=4;exitX=0.145;exitY=0.855;exitDx=0;exitDy=0;exitPerimeter=0;entryX=0.145;entryY=0.145;entryDx=0;entryDy=0;entryPerimeter=0;endFill=0;" edge="1" parent="1" source="-v2cMw3LyEbhCpz4ICH8-56" target="-v2cMw3LyEbhCpz4ICH8-61">
          <mxGeometry width="50" height="50" relative="1" as="geometry">
            <mxPoint x="485" y="426" as="sourcePoint" />
            <mxPoint x="525" y="500" as="targetPoint" />
            <Array as="points">
              <mxPoint x="570" y="450" />
              <mxPoint x="610" y="460" />
            </Array>
          </mxGeometry>
        </mxCell>
        <mxCell id="-v2cMw3LyEbhCpz4ICH8-67" value="&lt;span style=&quot;text-align: center&quot;&gt;Merge bug fix&lt;br&gt;&lt;/span&gt;" style="text;html=1;strokeColor=none;fillColor=none;align=left;verticalAlign=middle;whiteSpace=wrap;overflow=hidden;fontSize=12;fontStyle=0;fontColor=#000000;" vertex="1" parent="1">
          <mxGeometry x="537.25" y="425" width="42.5" height="44" as="geometry" />
        </mxCell>
        <mxCell id="-v2cMw3LyEbhCpz4ICH8-72" style="edgeStyle=orthogonalEdgeStyle;curved=1;rounded=0;html=1;exitX=1;exitY=0.5;exitPerimeter=0;endArrow=none;endFill=0;jettySize=auto;orthogonalLoop=1;strokeWidth=4;fontSize=15;exitDx=0;exitDy=0;startArrow=none;" edge="1" parent="1" source="-v2cMw3LyEbhCpz4ICH8-110">
          <mxGeometry relative="1" as="geometry">
            <mxPoint x="579.75" y="594.5" as="sourcePoint" />
            <mxPoint x="1040" y="594" as="targetPoint" />
          </mxGeometry>
        </mxCell>
        <mxCell id="-v2cMw3LyEbhCpz4ICH8-29" value="" style="verticalLabelPosition=bottom;verticalAlign=top;html=1;strokeWidth=4;shape=mxgraph.flowchart.on-page_reference;strokeColor=#330000;fillColor=#dae8fc;" vertex="1" parent="1">
          <mxGeometry x="680" y="580" width="30" height="30" as="geometry" />
        </mxCell>
        <mxCell id="-v2cMw3LyEbhCpz4ICH8-74" value="" style="curved=1;endArrow=none;html=1;strokeWidth=4;exitX=0.855;exitY=0.855;exitDx=0;exitDy=0;exitPerimeter=0;entryX=0.5;entryY=0;entryDx=0;entryDy=0;entryPerimeter=0;endFill=0;" edge="1" parent="1" source="-v2cMw3LyEbhCpz4ICH8-56" target="-v2cMw3LyEbhCpz4ICH8-29">
          <mxGeometry width="50" height="50" relative="1" as="geometry">
            <mxPoint x="594.0999999999999" y="421.6500000000001" as="sourcePoint" />
            <mxPoint x="624.0999999999999" y="504.3499999999999" as="targetPoint" />
            <Array as="points">
              <mxPoint x="680" y="460" />
              <mxPoint x="680" y="510" />
              <mxPoint x="670" y="540" />
            </Array>
          </mxGeometry>
        </mxCell>
        <mxCell id="-v2cMw3LyEbhCpz4ICH8-75" value="&lt;span style=&quot;text-align: center&quot;&gt;Merge and submit QA for staging test&lt;br&gt;&lt;/span&gt;" style="text;html=1;strokeColor=none;fillColor=none;align=left;verticalAlign=middle;whiteSpace=wrap;overflow=hidden;fontSize=12;fontStyle=0;fontColor=#000000;" vertex="1" parent="1">
          <mxGeometry x="670.63" y="416" width="82.25" height="44" as="geometry" />
        </mxCell>
        <mxCell id="-v2cMw3LyEbhCpz4ICH8-80" value="" style="edgeStyle=orthogonalEdgeStyle;curved=1;rounded=0;orthogonalLoop=1;jettySize=auto;html=1;endArrow=none;endFill=0;strokeWidth=4;startArrow=none;" edge="1" parent="1" source="-v2cMw3LyEbhCpz4ICH8-107">
          <mxGeometry relative="1" as="geometry">
            <mxPoint x="1040" y="295" as="targetPoint" />
            <mxPoint x="580" y="295.5" as="sourcePoint" />
          </mxGeometry>
        </mxCell>
        <mxCell id="uWUnNED6HEl2aK5fdaIb-104" value="" style="verticalLabelPosition=bottom;verticalAlign=top;html=1;strokeWidth=4;shape=mxgraph.flowchart.on-page_reference;plain-purple;gradientColor=none;strokeColor=#000000;fillColor=#D5E8D4;" parent="1" vertex="1">
          <mxGeometry x="660" y="281" width="30" height="30" as="geometry" />
        </mxCell>
        <mxCell id="-v2cMw3LyEbhCpz4ICH8-82" value="" style="curved=1;endArrow=none;html=1;strokeWidth=4;exitX=0.855;exitY=0.145;exitDx=0;exitDy=0;exitPerimeter=0;entryX=0.5;entryY=1;entryDx=0;entryDy=0;entryPerimeter=0;endFill=0;" edge="1" parent="1" source="-v2cMw3LyEbhCpz4ICH8-56" target="uWUnNED6HEl2aK5fdaIb-104">
          <mxGeometry width="50" height="50" relative="1" as="geometry">
            <mxPoint x="609.7499999999999" y="311.0000000000001" as="sourcePoint" />
            <mxPoint x="639.7499999999999" y="393.69999999999993" as="targetPoint" />
            <Array as="points">
              <mxPoint x="670" y="370" />
              <mxPoint x="620" y="330" />
            </Array>
          </mxGeometry>
        </mxCell>
        <mxCell id="-v2cMw3LyEbhCpz4ICH8-84" value="Tag: 1.0.0" style="text;html=1;strokeColor=none;fillColor=none;align=center;verticalAlign=middle;whiteSpace=wrap;overflow=hidden;fontSize=14;" vertex="1" parent="1">
          <mxGeometry x="670" y="188" width="70" height="20" as="geometry" />
        </mxCell>
        <mxCell id="-v2cMw3LyEbhCpz4ICH8-85" style="edgeStyle=orthogonalEdgeStyle;curved=1;rounded=0;orthogonalLoop=1;jettySize=auto;html=1;entryX=0.145;entryY=0.855;entryDx=0;entryDy=0;entryPerimeter=0;endArrow=none;endFill=0;strokeWidth=4;fontFamily=Courier New;fontColor=#009900;exitX=0.855;exitY=0.145;exitDx=0;exitDy=0;exitPerimeter=0;" edge="1" parent="1" source="uWUnNED6HEl2aK5fdaIb-104" target="uWUnNED6HEl2aK5fdaIb-11">
          <mxGeometry relative="1" as="geometry">
            <mxPoint x="680" y="295" as="sourcePoint" />
            <mxPoint x="733.98" y="210" as="targetPoint" />
            <Array as="points">
              <mxPoint x="686" y="270" />
              <mxPoint x="744" y="270" />
            </Array>
          </mxGeometry>
        </mxCell>
        <mxCell id="-v2cMw3LyEbhCpz4ICH8-88" value="Hotfix Commit" style="text;html=1;strokeColor=none;fillColor=none;align=center;verticalAlign=middle;whiteSpace=wrap;overflow=hidden;" vertex="1" parent="1">
          <mxGeometry x="815" y="77" width="80" height="30" as="geometry" />
        </mxCell>
        <mxCell id="-v2cMw3LyEbhCpz4ICH8-91" value="" style="verticalLabelPosition=bottom;verticalAlign=top;html=1;strokeWidth=4;shape=mxgraph.flowchart.on-page_reference;plain-blue;gradientColor=none;strokeColor=#000000;fillColor=#B5E3FE;" vertex="1" parent="1">
          <mxGeometry x="741.68" y="107" width="30" height="30" as="geometry" />
        </mxCell>
        <mxCell id="-v2cMw3LyEbhCpz4ICH8-122" value="" style="edgeStyle=orthogonalEdgeStyle;rounded=0;orthogonalLoop=1;jettySize=auto;html=1;endArrow=classic;endFill=1;strokeWidth=1;entryX=0;entryY=0.5;entryDx=0;entryDy=0;entryPerimeter=0;" edge="1" parent="1" source="-v2cMw3LyEbhCpz4ICH8-93" target="-v2cMw3LyEbhCpz4ICH8-91">
          <mxGeometry relative="1" as="geometry">
            <Array as="points">
              <mxPoint x="130" y="122" />
            </Array>
          </mxGeometry>
        </mxCell>
        <mxCell id="-v2cMw3LyEbhCpz4ICH8-93" value="hotfix" style="text;html=1;strokeColor=none;fillColor=none;align=center;verticalAlign=middle;whiteSpace=wrap;overflow=hidden;fontSize=14;fontStyle=1;fontFamily=Courier New;" vertex="1" parent="1">
          <mxGeometry x="65" y="101" width="64.69" height="42" as="geometry" />
        </mxCell>
        <mxCell id="-v2cMw3LyEbhCpz4ICH8-99" value="" style="verticalLabelPosition=bottom;verticalAlign=top;html=1;strokeWidth=4;shape=mxgraph.flowchart.on-page_reference;plain-blue;gradientColor=#EA6B66;strokeColor=#B85450;fillColor=#F8CECC;" vertex="1" parent="1">
          <mxGeometry x="840" y="107" width="30" height="30" as="geometry" />
        </mxCell>
        <mxCell id="-v2cMw3LyEbhCpz4ICH8-102" value="" style="edgeStyle=orthogonalEdgeStyle;curved=1;rounded=0;orthogonalLoop=1;jettySize=auto;html=1;endArrow=none;endFill=0;strokeWidth=4;" edge="1" parent="1" source="-v2cMw3LyEbhCpz4ICH8-91" target="-v2cMw3LyEbhCpz4ICH8-99">
          <mxGeometry relative="1" as="geometry">
            <mxPoint x="1041.6800000000003" y="122" as="targetPoint" />
            <mxPoint x="771.6799999999998" y="122" as="sourcePoint" />
          </mxGeometry>
        </mxCell>
        <mxCell id="-v2cMw3LyEbhCpz4ICH8-103" value="bug fix" style="text;html=1;strokeColor=none;fillColor=none;align=left;verticalAlign=middle;whiteSpace=wrap;overflow=hidden;fontSize=14;fontStyle=0;fontColor=#009900;" vertex="1" parent="1">
          <mxGeometry x="32.25" y="137" width="65" height="20" as="geometry" />
        </mxCell>
        <mxCell id="-v2cMw3LyEbhCpz4ICH8-104" value="" style="verticalLabelPosition=bottom;verticalAlign=top;html=1;strokeWidth=4;shape=mxgraph.flowchart.on-page_reference;plain-blue;gradientColor=#EA6B66;strokeColor=#B85450;fillColor=#F8CECC;" vertex="1" parent="1">
          <mxGeometry x="870" y="196" width="30" height="30" as="geometry" />
        </mxCell>
        <mxCell id="-v2cMw3LyEbhCpz4ICH8-106" value="" style="edgeStyle=orthogonalEdgeStyle;curved=1;rounded=0;orthogonalLoop=1;jettySize=auto;html=1;endArrow=none;endFill=0;strokeWidth=4;" edge="1" parent="1" source="uWUnNED6HEl2aK5fdaIb-11" target="-v2cMw3LyEbhCpz4ICH8-104">
          <mxGeometry relative="1" as="geometry">
            <mxPoint x="1040" y="211" as="targetPoint" />
            <mxPoint x="770" y="211" as="sourcePoint" />
          </mxGeometry>
        </mxCell>
        <mxCell id="-v2cMw3LyEbhCpz4ICH8-107" value="" style="verticalLabelPosition=bottom;verticalAlign=top;html=1;strokeWidth=4;shape=mxgraph.flowchart.on-page_reference;plain-blue;gradientColor=#EA6B66;strokeColor=#B85450;fillColor=#F8CECC;" vertex="1" parent="1">
          <mxGeometry x="920" y="281" width="30" height="30" as="geometry" />
        </mxCell>
        <mxCell id="-v2cMw3LyEbhCpz4ICH8-108" value="" style="edgeStyle=orthogonalEdgeStyle;curved=1;rounded=0;orthogonalLoop=1;jettySize=auto;html=1;endArrow=none;endFill=0;strokeWidth=4;startArrow=none;" edge="1" parent="1" source="uWUnNED6HEl2aK5fdaIb-104" target="-v2cMw3LyEbhCpz4ICH8-107">
          <mxGeometry relative="1" as="geometry">
            <mxPoint x="1040" y="295" as="targetPoint" />
            <mxPoint x="690" y="296" as="sourcePoint" />
          </mxGeometry>
        </mxCell>
        <mxCell id="-v2cMw3LyEbhCpz4ICH8-109" value="" style="verticalLabelPosition=bottom;verticalAlign=top;html=1;strokeWidth=4;shape=mxgraph.flowchart.on-page_reference;plain-blue;gradientColor=#EA6B66;strokeColor=#B85450;fillColor=#F8CECC;" vertex="1" parent="1">
          <mxGeometry x="970" y="490" width="30" height="30" as="geometry" />
        </mxCell>
        <mxCell id="-v2cMw3LyEbhCpz4ICH8-110" value="" style="verticalLabelPosition=bottom;verticalAlign=top;html=1;strokeWidth=4;shape=mxgraph.flowchart.on-page_reference;plain-blue;gradientColor=#EA6B66;strokeColor=#B85450;fillColor=#F8CECC;" vertex="1" parent="1">
          <mxGeometry x="1000" y="580" width="30" height="30" as="geometry" />
        </mxCell>
        <mxCell id="-v2cMw3LyEbhCpz4ICH8-111" value="" style="edgeStyle=orthogonalEdgeStyle;curved=1;rounded=0;html=1;exitX=1;exitY=0.5;exitPerimeter=0;endArrow=none;endFill=0;jettySize=auto;orthogonalLoop=1;strokeWidth=4;fontSize=15;exitDx=0;exitDy=0;startArrow=none;" edge="1" parent="1" source="-v2cMw3LyEbhCpz4ICH8-29" target="-v2cMw3LyEbhCpz4ICH8-110">
          <mxGeometry relative="1" as="geometry">
            <mxPoint x="710" y="595" as="sourcePoint" />
            <mxPoint x="1040" y="594" as="targetPoint" />
          </mxGeometry>
        </mxCell>
        <mxCell id="-v2cMw3LyEbhCpz4ICH8-114" value="" style="curved=1;endArrow=none;html=1;strokeWidth=4;exitX=0.5;exitY=0;exitDx=0;exitDy=0;exitPerimeter=0;entryX=0.145;entryY=0.855;entryDx=0;entryDy=0;entryPerimeter=0;endFill=0;" edge="1" parent="1" source="uWUnNED6HEl2aK5fdaIb-11" target="-v2cMw3LyEbhCpz4ICH8-91">
          <mxGeometry width="50" height="50" relative="1" as="geometry">
            <mxPoint x="752.8800000000001" y="187.99999999999991" as="sourcePoint" />
            <mxPoint x="822.48" y="108.65" as="targetPoint" />
            <Array as="points">
              <mxPoint x="755" y="170" />
              <mxPoint x="730" y="150" />
            </Array>
          </mxGeometry>
        </mxCell>
        <mxCell id="-v2cMw3LyEbhCpz4ICH8-123" value="" style="curved=1;endArrow=none;html=1;strokeWidth=4;exitX=0.5;exitY=1;exitDx=0;exitDy=0;exitPerimeter=0;entryX=0.145;entryY=0.145;entryDx=0;entryDy=0;entryPerimeter=0;endFill=0;" edge="1" parent="1" source="-v2cMw3LyEbhCpz4ICH8-99" target="-v2cMw3LyEbhCpz4ICH8-104">
          <mxGeometry width="50" height="50" relative="1" as="geometry">
            <mxPoint x="1000" y="127" as="sourcePoint" />
            <mxPoint x="1050" y="77" as="targetPoint" />
            <Array as="points">
              <mxPoint x="910" y="180" />
              <mxPoint x="860" y="170" />
            </Array>
          </mxGeometry>
        </mxCell>
        <mxCell id="-v2cMw3LyEbhCpz4ICH8-124" value="" style="curved=1;endArrow=none;html=1;strokeWidth=4;exitX=0.855;exitY=0.855;exitDx=0;exitDy=0;exitPerimeter=0;entryX=0.855;entryY=0.145;entryDx=0;entryDy=0;entryPerimeter=0;endFill=0;" edge="1" parent="1" source="-v2cMw3LyEbhCpz4ICH8-99" target="-v2cMw3LyEbhCpz4ICH8-107">
          <mxGeometry width="50" height="50" relative="1" as="geometry">
            <mxPoint x="865" y="147" as="sourcePoint" />
            <mxPoint x="884.3499999999999" y="210.3499999999999" as="targetPoint" />
            <Array as="points">
              <mxPoint x="946" y="170" />
              <mxPoint x="910" y="190" />
            </Array>
          </mxGeometry>
        </mxCell>
        <mxCell id="-v2cMw3LyEbhCpz4ICH8-125" value="" style="curved=1;endArrow=none;html=1;strokeWidth=4;exitX=0.855;exitY=0.855;exitDx=0;exitDy=0;exitPerimeter=0;entryX=0.667;entryY=0;entryDx=0;entryDy=0;entryPerimeter=0;endFill=0;" edge="1" parent="1" source="-v2cMw3LyEbhCpz4ICH8-107" target="-v2cMw3LyEbhCpz4ICH8-109">
          <mxGeometry width="50" height="50" relative="1" as="geometry">
            <mxPoint x="875.6500000000001" y="142.6500000000001" as="sourcePoint" />
            <mxPoint x="955.6500000000001" y="295.3499999999999" as="targetPoint" />
            <Array as="points">
              <mxPoint x="935" y="420" />
              <mxPoint x="970" y="450" />
            </Array>
          </mxGeometry>
        </mxCell>
        <mxCell id="-v2cMw3LyEbhCpz4ICH8-126" value="" style="curved=1;endArrow=none;html=1;strokeWidth=4;exitX=0.855;exitY=0.855;exitDx=0;exitDy=0;exitPerimeter=0;entryX=0.855;entryY=0.145;entryDx=0;entryDy=0;entryPerimeter=0;endFill=0;" edge="1" parent="1" source="-v2cMw3LyEbhCpz4ICH8-107" target="-v2cMw3LyEbhCpz4ICH8-110">
          <mxGeometry width="50" height="50" relative="1" as="geometry">
            <mxPoint x="880" y="132" as="sourcePoint" />
            <mxPoint x="1000.0100000000002" y="500" as="targetPoint" />
            <Array as="points">
              <mxPoint x="990" y="430" />
              <mxPoint x="1015" y="470" />
            </Array>
          </mxGeometry>
        </mxCell>
      </root>
    </mxGraphModel>
  </diagram>
</mxfile>
